<svg id="Layer_1" data-name="Layer 1" xmlns="http://www.w3.org/2000/svg" viewBox="0 0 560 288"><defs><style>.cls-1{fill:none;stroke:#fff;stroke-miterlimit:10;stroke-width:0.5px;}</style></defs><path class="cls-1" d="M203,120.39v-1.21h20.12v1.21h-6.49v34.79h6.49v1.21H203v-1.21h6.48V120.39Z"/><path class="cls-1" d="M232.44,130.15A20.82,20.82,0,0,1,243,119.57a17.32,17.32,0,0,1,7-1.52,16.05,16.05,0,0,1,7.4,1.78,18,18,0,0,1,6.11,5.16,26.94,26.94,0,0,1,4.2,8.2,35,35,0,0,1,1.58,10.89,53,53,0,0,1-2.21,15.83,41.88,41.88,0,0,1-5.73,12,26.93,26.93,0,0,1-8.07,7.64,17.84,17.84,0,0,1-9.18,2.69,11.88,11.88,0,0,1-4.95-1,10.37,10.37,0,0,1-3.49-2.43,9.54,9.54,0,0,1-2-3.29A10.22,10.22,0,0,1,233,172a4.14,4.14,0,0,1,1.29-3.3,5.06,5.06,0,0,1,3.45-1.12,4.44,4.44,0,0,1,2.91.78,2.41,2.41,0,0,1,.92,1.9,3.4,3.4,0,0,1-.34,1.44c-.22.49-.47,1-.74,1.51a13.21,13.21,0,0,0-.75,1.7,5.9,5.9,0,0,0-.33,2,3.45,3.45,0,0,0,1.49,3,6.44,6.44,0,0,0,3.74,1,10.77,10.77,0,0,0,7.32-2.6,19.6,19.6,0,0,0,4.91-6.85,47.36,47.36,0,0,0,3-9.63A109.54,109.54,0,0,0,261.63,151l-.17-.18a12.85,12.85,0,0,1-4.7,4.77,13.84,13.84,0,0,1-7.36,1.91,17.79,17.79,0,0,1-7.19-1.47,18.62,18.62,0,0,1-5.9-4.08,19.65,19.65,0,0,1-5.53-13.79A19.3,19.3,0,0,1,232.44,130.15Zm7,15.1a19,19,0,0,0,1.41,5.72,9.23,9.23,0,0,0,3.16,3.95,9.45,9.45,0,0,0,5.57,1.47,14.81,14.81,0,0,0,4.45-.69,10.81,10.81,0,0,0,3.91-2.17,10.62,10.62,0,0,0,2.74-3.82,13.87,13.87,0,0,0,1-5.63q0-5.91-.46-10.54a28.34,28.34,0,0,0-1.74-7.81,10.8,10.8,0,0,0-3.58-4.82,11.74,11.74,0,0,0-11.6-.21,9.15,9.15,0,0,0-3.32,4,19.54,19.54,0,0,0-1.54,6.07,73.42,73.42,0,0,0-.38,7.76A63.82,63.82,0,0,0,239.43,145.25Z"/><path class="cls-1" d="M279.38,134.79a18.27,18.27,0,0,1,3.74-4.77,22.8,22.8,0,0,1,4.65-3.29q2.46-1.31,4.2-2.09a38.39,38.39,0,0,1-4.57-2.43,15.28,15.28,0,0,1-3.62-3.12,13.57,13.57,0,0,1-2.41-4.29,17.69,17.69,0,0,1-.87-5.86A13.55,13.55,0,0,1,282,102.7a16.83,16.83,0,0,1,3.79-5A17.46,17.46,0,0,1,291,94.5a16.17,16.17,0,0,1,6-1.17,17.36,17.36,0,0,1,5.61.91,15.46,15.46,0,0,1,4.82,2.6,13.28,13.28,0,0,1,3.41,4.08,11,11,0,0,1,1.29,5.33,12.35,12.35,0,0,1-.92,4.86,14.32,14.32,0,0,1-2.49,4,23.23,23.23,0,0,1-3.58,3.25c-1.33,1-2.71,1.94-4.15,2.86,1.6.81,3.23,1.73,4.86,2.74a21.3,21.3,0,0,1,4.41,3.6,18.11,18.11,0,0,1,3.2,4.72,14.26,14.26,0,0,1,1.25,6.12,20.31,20.31,0,0,1-1.33,7.29,18.15,18.15,0,0,1-3.87,6.11,18.53,18.53,0,0,1-6.15,4.21,20.48,20.48,0,0,1-8.19,1.56,19.15,19.15,0,0,1-6.86-1.21,17,17,0,0,1-5.53-3.34,15.23,15.23,0,0,1-3.66-5.12,15.91,15.91,0,0,1-1.33-6.55A13.19,13.19,0,0,1,279.38,134.79Zm5.9,12.58a14,14,0,0,0,2,4.64,9.69,9.69,0,0,0,3.57,3.21,11.32,11.32,0,0,0,5.36,1.17,8.65,8.65,0,0,0,4.91-1.43,14.83,14.83,0,0,0,3.74-3.55,17,17,0,0,0,3.24-9.68,13.34,13.34,0,0,0-1.28-6.2,13.94,13.94,0,0,0-3.41-4.25,26.37,26.37,0,0,0-4.83-3.17c-1.8-.92-3.61-1.88-5.44-2.86a15.64,15.64,0,0,0-4.41,3.17,13.59,13.59,0,0,0-2.58,3.86,15.69,15.69,0,0,0-1.2,4.51,41.9,41.9,0,0,0-.29,5.12A23.07,23.07,0,0,0,285.28,147.37ZM287,110.85a9.93,9.93,0,0,0,2.28,3.47,17.47,17.47,0,0,0,1.79,1.39c.75.52,1.61,1.05,2.58,1.6s2,1.1,3,1.65,2.11,1.09,3.16,1.61a11.75,11.75,0,0,0,2-1.61,12.14,12.14,0,0,0,1.95-2.51,14.88,14.88,0,0,0,1.5-3.6,17.73,17.73,0,0,0,.58-4.78,37.39,37.39,0,0,0-.33-5,14.42,14.42,0,0,0-1.25-4.33,7.2,7.2,0,0,0-2.66-3,8.47,8.47,0,0,0-4.65-1.13,10.2,10.2,0,0,0-7.9,3.17,11.88,11.88,0,0,0-2.91,8.37A12.88,12.88,0,0,0,287,110.85Z"/><path class="cls-1" d="M349.84,127.51v27.67h7.32v1.21h-7.32v16.83a9.61,9.61,0,0,0-7.15,0V156.39H319.08q4.49-11.7,9.56-22.85a171.28,171.28,0,0,1,11.81-21.65q1.74-2.69,2.78-4.16a13.81,13.81,0,0,1,1.87-2.22,3.8,3.8,0,0,1,1.63-.91,10.11,10.11,0,0,1,2-.17c2.17,0,3.25.64,3.25,1.91,0,.81-.81,2-2.41,3.69s-3.58,3.77-5.91,6.37a77.16,77.16,0,0,0-4.9,6.16q-2.58,3.56-5.16,7.55t-4.9,8.24q-2.34,4.25-4.16,8.33l-3.91,8.5h22V127.51Z"/></svg>